<svg xmlns="http://www.w3.org/2000/svg" xmlns:xlink="http://www.w3.org/1999/xlink" viewBox="0 0 48 48" height="48" width="48">
  <circle cx="24" cy="23.9947" r="12" fill="rgb(255,255,255)"/>
  <path d="M3.2154,36A24,24,0,1,0,12,3.2154,24,24,0,0,0,3.2154,36ZM34.3923,18A12,12,0,1,1,18,13.6077,12,12,0,0,1,34.3923,18Z" fill="none"/>
  <path d="M24,12H44.7812a23.9939,23.9939,0,0,0-41.5639.0029L13.6079,30l.0093-.0024A11.9852,11.9852,0,0,1,24,12Z" fill="rgb(217,48,37)"/>
  <circle cx="24" cy="24" r="9.5" fill="rgb(26,115,232)"/>
  <path d="M34.3913,30.0029,24.0007,48A23.994,23.994,0,0,0,44.78,12.0031H23.9989l-.0025.0093A11.985,11.985,0,0,1,34.3913,30.0029Z" fill="rgb(252,201,52)"/>
  <path d="M13.6086,30.0031,3.218,12.006A23.994,23.994,0,0,0,24.0025,48L34.3931,30.0029l-.0067-.0068a11.9852,11.9852,0,0,1-20.7778.007Z" fill="rgb(30,142,62)"/>
</svg>
